<?xml version="1.0" encoding="UTF-8"?>
<svg version="1.1" xmlns="http://www.w3.org/2000/svg" width="1330" height="1330">
<path d="M0 0 C1.70260911 -0.00389791 3.40521495 -0.00954228 5.10781318 -0.0167709 C9.76435234 -0.03147619 14.42055163 -0.02137322 19.07707965 -0.00703418 C24.10891848 0.0041016 29.14071064 -0.00787642 34.17254639 -0.01687622 C44.02712225 -0.0307993 53.88156982 -0.02325626 63.73613956 -0.00820064 C75.23867208 0.00869896 86.74117297 0.00544354 98.24371407 0.00170528 C118.79782187 -0.00417306 139.35186843 0.00998971 159.90596008 0.03465271 C179.78912154 0.05850761 199.67220096 0.06568255 219.55537415 0.05516052 C241.24306092 0.04370398 262.93070974 0.04188448 284.6183961 0.05625862 C286.94029764 0.05778427 289.26219918 0.05930463 291.58410072 0.06081963 C292.72622294 0.06157744 293.86834516 0.06233525 295.04507714 0.06311603 C303.03369581 0.06782759 311.02229737 0.06602934 319.01091576 0.06175423 C328.7835746 0.05678313 338.55615645 0.06300487 348.32879784 0.08264852 C353.3008546 0.09240155 358.27279516 0.09775905 363.24485779 0.08975601 C392.26170815 0.04799321 420.83155121 1.22983123 449.4745636 6.31370544 C450.58532257 6.50553909 450.58532257 6.50553909 451.71852112 6.70124817 C539.65133593 21.89527311 624.57393812 61.04073773 690.7636261 121.38401794 C692.86875108 123.29200747 695.00569994 125.15167614 697.1620636 127.00120544 C700.98727088 130.32309598 704.51875991 133.90088939 708.07221985 137.50901794 C710.12391872 139.59849976 710.12391872 139.59849976 712.7245636 141.56370544 C715.56852741 143.88378119 717.77793544 146.51809405 720.1542511 149.30589294 C722.1719528 151.58289768 724.29341979 153.69336007 726.4745636 155.81370544 C730.62451749 159.90729324 734.27940494 164.27407819 737.9198761 168.82151794 C739.89254806 171.24670248 741.93099615 173.56714354 744.0370636 175.87620544 C803.35815113 242.08694684 839.21096412 332.41662448 853.0995636 433.50120544 C853.18569916 434.28611359 853.27183472 435.07102173 853.36058044 435.87971497 C855.12832765 452.40439327 855.46055138 468.82944783 855.4120636 485.43870544 C855.40932938 487.38651413 855.40932938 487.38651413 855.40653992 489.37367249 C855.36034801 508.94023253 854.81557731 528.10754269 852.0995636 547.50120544 C851.92795715 548.79268494 851.75635071 550.08416443 851.57954407 551.41477966 C845.12400453 599.66055921 831.25844213 646.23603276 811.0995636 690.50120544 C810.70301575 691.37937927 810.3064679 692.2575531 809.89790344 693.16233826 C792.24799355 732.0456027 768.5497412 768.45863422 740.59614563 800.71751404 C739.49765491 802.02674294 738.42985329 803.36188115 737.38032532 804.7106781 C730.57606918 813.36093567 722.86552058 821.03840405 715.07124329 828.79026794 C712.72939147 831.12139968 710.39842509 833.46303252 708.0683136 835.80589294 C700.37972715 843.50128228 692.67259119 850.79432584 684.0995636 857.50120544 C682.93464474 858.49503937 681.7772641 859.4978414 680.6308136 860.51292419 C618.17577291 915.73867007 535.95922947 951.40868636 454.3495636 965.81370544 C453.65166718 965.93708282 452.95377075 966.06046021 452.23472595 966.18757629 C386.56416075 977.6831543 317.86940362 973.67444923 251.47005892 973.62833977 C247.12158397 973.6254801 242.77310878 973.62333722 238.42463344 973.62116718 C209.54992474 973.60645059 180.6752772 973.56986121 151.80061215 973.51816654 C145.42472262 973.50680046 139.04883263 973.49636044 132.67294002 973.486884 C110.51699215 973.45394702 88.36120945 973.40783375 66.20542526 973.31408882 C64.43289443 973.30660557 62.66036356 973.29913315 60.88783264 973.29167175 C60.01848076 973.28800358 59.14912887 973.28433541 58.25343299 973.28055608 C52.17181344 973.25585257 46.09021955 973.24114245 40.00856018 973.23075867 C32.66546855 973.21805905 25.32258993 973.19159229 17.97962099 973.14679301 C14.27543749 973.12451474 10.57151098 973.10825178 6.86725426 973.10928726 C2.87576842 973.11016539 -1.11489785 973.08013987 -5.10624695 973.04710388 C-6.82519574 973.05465037 -6.82519574 973.05465037 -8.57887077 973.06234932 C-20.1709559 972.91228555 -29.46392439 969.55496455 -37.9004364 961.50120544 C-46.48365331 952.51007328 -49.52259152 943.01022162 -49.37333679 930.78074646 C-48.87525532 918.71745612 -43.7631316 909.83785669 -35.0254364 901.75120544 C-24.32690721 892.83914792 -12.78315576 892.20119789 0.67579651 892.26742554 C2.15037245 892.26726929 3.62494851 892.26622872 5.09952331 892.26438528 C9.13517055 892.26186254 13.17070501 892.27176306 17.20633173 892.28373325 C21.56683668 892.29445533 25.92734112 892.29353414 30.28785706 892.29400635 C37.84563608 892.29636685 45.40337817 892.30593961 52.96114349 892.32031059 C63.92859668 892.34106095 74.89603418 892.34968618 85.86350438 892.35523195 C103.71205804 892.36448905 121.5605934 892.38193622 139.40913391 892.40525818 C140.47694146 892.40665149 141.54474901 892.40804481 142.64491436 892.40948034 C143.71387385 892.41087587 144.78283335 892.4122714 145.88418555 892.41370922 C148.04622888 892.4165302 150.20827222 892.41934876 152.37031555 892.42216492 C153.44145631 892.42356024 154.51259707 892.42495557 155.61619665 892.42639318 C167.45733006 892.44166671 179.2984657 892.45459615 191.13960266 892.46678162 C192.72661462 892.46841789 192.72661462 892.46841789 194.34568742 892.47008722 C212.09525341 892.48821905 229.84482129 892.50214083 247.59439254 892.51395327 C258.5067335 892.52147777 269.41905539 892.53312593 280.33138534 892.55041493 C287.84395363 892.5621382 295.3565204 892.57022955 302.86909583 892.57568043 C307.17946885 892.57895536 311.48982238 892.58381503 315.80018616 892.59349442 C333.29773161 892.63170168 350.77731623 892.51261454 368.2691803 892.03442383 C369.04700459 892.0132743 369.82482887 891.99212477 370.62622359 891.97033434 C381.70463144 891.66200926 392.74810334 891.19881083 403.7870636 890.18870544 C404.87759537 890.09258469 404.87759537 890.09258469 405.99015808 889.99452209 C453.22208018 885.81298182 499.25129592 873.94018521 542.0995636 853.50120544 C543.03526184 853.05792908 543.97096008 852.61465271 544.93501282 852.15794373 C579.01535294 835.90685374 610.54458303 814.69507552 638.29878235 789.05589294 C640.48252505 787.06402721 642.69045635 785.12284247 644.9276886 783.19261169 C649.17937143 779.48321746 653.18505527 775.56385834 657.1620636 771.56370544 C657.8304425 770.89919373 658.49882141 770.23468201 659.18745422 769.55003357 C663.69703151 765.03169132 667.93770625 760.33945089 672.0995636 755.50120544 C673.02529712 754.45313664 673.95229932 753.40618649 674.8808136 752.36058044 C692.11071637 732.75370568 707.16340881 711.16097755 720.0995636 688.50120544 C720.57474426 687.67507751 721.04992493 686.84894958 721.539505 685.99778748 C749.51551631 637.00668348 766.18034383 582.53721399 772.0995636 526.50120544 C772.18947571 525.6602533 772.27938782 524.81930115 772.37202454 523.9528656 C779.38300252 453.30879187 766.04719592 382.03852519 737.0995636 317.50120544 C736.73620911 316.68345642 736.37285461 315.8657074 735.99848938 315.0231781 C714.01089688 265.79581088 679.21346826 218.56066524 638.0995636 183.50120544 C637.1405011 182.65300232 636.1814386 181.80479919 635.1933136 180.93089294 C615.51826205 163.61471927 593.85159331 148.49487441 571.0995636 135.50120544 C570.30630676 135.04777771 569.51304993 134.59434998 568.695755 134.12718201 C515.48092794 103.93480144 455.76990455 85.98015685 394.63102722 82.40304565 C393.91047444 82.3603824 393.18992166 82.31771914 392.44753395 82.27376305 C374.7814836 81.25490542 357.1315873 81.24750637 339.44201803 81.31305134 C334.71706262 81.32817806 329.99209575 81.33106165 325.26712036 81.33547974 C317.12149665 81.34456464 308.97591265 81.36064346 300.83031082 81.38144112 C289.0407865 81.41126511 277.25127396 81.42667728 265.46171914 81.43825322 C246.30615831 81.45716306 227.15061431 81.48286437 207.99507141 81.51512146 C206.85409704 81.51703939 205.71312267 81.51895733 204.53757332 81.52093338 C191.78082873 81.54252474 179.02408783 81.56573274 166.26734924 81.59062195 C161.62353011 81.5996571 156.97971095 81.60867298 152.33589172 81.61766052 C150.61655596 81.62099301 150.61655596 81.62099301 148.86248614 81.62439281 C129.74155005 81.6611282 110.62061828 81.68618797 91.4996537 81.70213026 C79.73719306 81.71243959 67.97483398 81.73278924 56.21241598 81.76624786 C48.16763783 81.78840261 40.1228906 81.79976788 32.07808264 81.80268318 C27.44248813 81.80472805 22.80703783 81.81168249 18.17148399 81.83190536 C13.92357993 81.85035042 9.67589414 81.85476211 5.42795704 81.84832757 C3.89713193 81.84844708 2.3662965 81.85360279 0.83551015 81.86449743 C-14.09674616 81.96542677 -26.60319043 79.97242011 -37.96684265 69.61839294 C-47.29007152 59.67093061 -49.40249684 49.23997665 -49.16996765 36.05979919 C-48.7351349 25.62167103 -44.15825445 17.84942336 -36.9004364 10.50120544 C-25.91158444 1.14256779 -13.83624215 -0.08801414 0 0 Z " fill="#000000" transform="translate(263.9004364013672,179.49879455566406)"/>
</svg>
